{"glyphs":{"0":{"ha":1137,"x_min":0,"x_max":0,"o":""},"1":{"ha":472,"x_min":0,"x_max":0,"o":""},"2":{"ha":1029,"x_min":0,"x_max":0,"o":""},"3":{"ha":1061,"x_min":0,"x_max":0,"o":""},"4":{"ha":1191,"x_min":0,"x_max":0,"o":""},"5":{"ha":1067,"x_min":0,"x_max":0,"o":""},"6":{"ha":1088,"x_min":0,"x_max":0,"o":""},"7":{"ha":962,"x_min":0,"x_max":0,"o":""},"8":{"ha":1097,"x_min":0,"x_max":0,"o":""},"9":{"ha":1086,"x_min":0,"x_max":0,"o":""},"\u0000":{"ha":111,"x_min":0,"x_max":0,"o":""},"\u001d":{"ha":111,"x_min":0,"x_max":0,"o":""}," ":{"ha":428,"x_min":0,"x_max":0,"o":""}," ":{"ha":428,"x_min":0,"x_max":0,"o":""},"!":{"ha":472,"x_min":0,"x_max":0,"o":""},"\"":{"ha":497,"x_min":0,"x_max":0,"o":""},"#":{"ha":1204,"x_min":0,"x_max":0,"o":""},"$":{"ha":1093,"x_min":0,"x_max":0,"o":""},"%":{"ha":1288,"x_min":0,"x_max":0,"o":""},"&":{"ha":1211,"x_min":0,"x_max":0,"o":""},"'":{"ha":494,"x_min":0,"x_max":0,"o":""},"(":{"ha":678,"x_min":0,"x_max":0,"o":""},")":{"ha":678,"x_min":0,"x_max":0,"o":""},"*":{"ha":1470,"x_min":0,"x_max":1470,"o":"m 0 1282 l 1470 1282 l 1470 -189 l 0 -189 l 0 1282 z "},"+":{"ha":1067,"x_min":0,"x_max":0,"o":""},",":{"ha":496,"x_min":0,"x_max":0,"o":""},"-":{"ha":650,"x_min":0,"x_max":0,"o":""},"­":{"ha":650,"x_min":0,"x_max":0,"o":""},".":{"ha":477,"x_min":0,"x_max":0,"o":""},"/":{"ha":804,"x_min":0,"x_max":0,"o":""},":":{"ha":475,"x_min":0,"x_max":0,"o":""},";":{"ha":495,"x_min":0,"x_max":0,"o":""},";":{"ha":495,"x_min":0,"x_max":0,"o":""},"<":{"ha":819,"x_min":0,"x_max":0,"o":""},"=":{"ha":1149,"x_min":0,"x_max":0,"o":""},">":{"ha":818,"x_min":0,"x_max":0,"o":""},"?":{"ha":924,"x_min":0,"x_max":0,"o":""},"@":{"ha":1217,"x_min":0,"x_max":0,"o":""},"A":{"ha":1470,"x_min":0,"x_max":1470,"o":"m 734 572 l 830 364 l 640 364 l 734 572 m 761 1093 l 710 1093 l 80 0 l 475 0 l 536 134 l 935 134 l 996 0 l 1390 0 l 761 1093 m 0 1282 l 1470 1282 l 1470 -189 l 0 -189 l 0 1282 z "},"B":{"ha":1470,"x_min":0,"x_max":1470,"o":"m 625 676 l 625 854 l 732 854 q 844 765 844 854 q 732 676 844 676 l 625 676 m 836 1093 l 252 1093 l 252 0 l 857 0 q 1230 144 1150 0 q 1259 274 1259 198 q 1228 407 1259 351 q 1040 550 1173 505 q 1223 718 1183 598 q 1187 962 1265 853 q 836 1093 1096 1093 m 625 236 l 625 414 l 747 414 q 860 325 860 414 q 747 236 860 236 l 625 236 m 0 1282 l 1470 1282 l 1470 -189 l 0 -189 l 0 1282 z "},"C":{"ha":1470,"x_min":0,"x_max":1470,"o":"m 966 628 l 1304 750 q 1109 1010 1246 916 q 753 1111 963 1111 q 332 942 507 1111 q 158 534 158 773 q 332 127 158 296 q 753 -41 507 -41 q 1122 68 972 -41 q 1312 349 1261 172 l 966 440 q 761 306 913 306 q 602 374 667 306 q 538 534 538 441 q 602 696 538 629 q 761 764 667 764 q 966 628 920 764 m 0 1282 l 1470 1282 l 1470 -189 l 0 -189 l 0 1282 z "},"D":{"ha":1470,"x_min":0,"x_max":1470,"o":"m 617 273 l 617 819 q 745 814 715 819 q 860 747 823 800 q 906 570 900 693 q 884 392 911 454 q 792 292 850 314 q 617 273 746 273 m 765 1093 l 232 1093 l 232 0 l 749 0 q 1157 144 1021 0 q 1291 544 1293 289 q 1234 825 1293 707 q 765 1093 1097 1093 m 0 1282 l 1470 1282 l 1470 -189 l 0 -189 l 0 1282 z "},"E":{"ha":1470,"x_min":0,"x_max":1470,"o":"m 1156 1093 l 313 1093 l 313 0 l 1156 0 l 1156 252 l 687 252 l 687 404 l 1145 404 l 1145 677 l 687 677 l 687 832 l 1156 832 l 1156 1093 m 0 1282 l 1470 1282 l 1470 -189 l 0 -189 l 0 1282 z "},"F":{"ha":1470,"x_min":0,"x_max":1470,"o":"m 1156 1093 l 313 1093 l 313 0 l 687 0 l 687 334 l 1115 334 l 1115 607 l 687 607 l 687 819 l 1156 819 l 1156 1093 m 0 1282 l 1470 1282 l 1470 -189 l 0 -189 l 0 1282 z "},"G":{"ha":1470,"x_min":0,"x_max":1470,"o":"m 977 644 l 1301 774 q 926 1104 1219 1034 q 627 1105 781 1141 q 343 956 461 1067 q 186 675 226 845 q 178 395 153 534 q 492 8 227 122 q 778 -21 623 -45 q 1072 100 933 3 l 1278 -21 l 1303 -21 l 1303 464 l 982 464 q 864 338 944 376 q 738 317 803 310 q 567 439 616 328 q 545 562 542 492 q 583 677 549 633 q 779 778 656 786 q 977 644 909 770 m 0 1282 l 1470 1282 l 1470 -189 l 0 -189 l 0 1282 z "},"H":{"ha":1470,"x_min":0,"x_max":1470,"o":"m 595 1093 l 221 1093 l 221 0 l 595 0 l 595 372 l 876 372 l 876 0 l 1249 0 l 1249 1093 l 876 1093 l 876 722 l 595 722 l 595 1093 m 0 1282 l 1470 1282 l 1470 -189 l 0 -189 l 0 1282 z "},"I":{"ha":1470,"x_min":0,"x_max":1470,"o":"m 922 1093 l 548 1093 l 548 0 l 922 0 l 922 1093 m 0 1282 l 1470 1282 l 1470 -189 l 0 -189 l 0 1282 z "},"J":{"ha":1470,"x_min":0,"x_max":1470,"o":"m 1023 329 l 1023 1093 l 648 1093 l 648 444 q 644 362 648 379 q 593 297 634 317 q 471 296 557 279 l 447 7 q 920 45 760 -79 q 1012 181 991 98 q 1023 329 1023 226 m 0 1282 l 1470 1282 l 1470 -189 l 0 -189 l 0 1282 z "},"K":{"ha":1470,"x_min":0,"x_max":1470,"o":"m 577 1093 l 203 1093 l 203 0 l 577 0 l 577 465 l 873 0 l 1320 0 l 945 591 l 1270 1093 l 863 1093 l 577 637 l 577 1093 m 0 1282 l 1470 1282 l 1470 -189 l 0 -189 l 0 1282 z "},"L":{"ha":1470,"x_min":0,"x_max":1470,"o":"m 688 1093 l 314 1093 l 314 0 l 1156 0 l 1156 252 l 688 252 l 688 1093 m 0 1282 l 1470 1282 l 1470 -189 l 0 -189 l 0 1282 z "},"M":{"ha":1470,"x_min":0,"x_max":1470,"o":"m 210 1107 l 179 1107 l 132 0 l 465 0 l 480 411 l 729 218 l 957 401 l 977 0 l 1339 0 l 1305 1107 l 1278 1107 l 730 675 l 210 1107 m 0 1282 l 1470 1282 l 1470 -189 l 0 -189 l 0 1282 z "},"N":{"ha":1470,"x_min":0,"x_max":1470,"o":"m 216 1107 l 177 1107 l 177 0 l 551 0 l 551 414 l 1266 -29 l 1293 -29 l 1293 1093 l 919 1093 l 919 665 l 216 1107 m 0 1282 l 1470 1282 l 1470 -189 l 0 -189 l 0 1282 z "},"O":{"ha":1470,"x_min":0,"x_max":1470,"o":"m 304 127 q 735 -41 480 -41 q 1168 127 994 -41 q 1341 534 1341 294 q 1168 942 1341 775 q 735 1111 994 1111 q 303 942 479 1111 q 130 534 130 775 q 304 127 130 295 m 574 374 q 510 534 510 440 q 574 696 510 629 q 736 764 640 764 q 897 696 832 764 q 960 534 960 629 q 895 374 960 441 q 738 306 830 306 q 574 374 640 306 m 0 1282 l 1470 1282 l 1470 -189 l 0 -189 l 0 1282 z "},"P":{"ha":1470,"x_min":0,"x_max":1470,"o":"m 756 1093 l 235 1093 l 235 0 l 609 0 l 609 288 l 736 288 q 1180 484 1061 288 q 1234 690 1231 568 q 1192 889 1237 810 q 756 1093 1080 1093 m 609 566 l 609 832 l 739 832 q 827 790 790 832 q 863 699 863 749 q 827 605 863 644 q 739 566 791 566 l 609 566 m 0 1282 l 1470 1282 l 1470 -189 l 0 -189 l 0 1282 z "},"Q":{"ha":1470,"x_min":0,"x_max":1470,"o":"m 574 374 q 510 534 510 440 q 574 696 510 629 q 736 764 640 764 q 897 696 832 764 q 960 534 960 629 q 895 374 960 441 q 738 306 830 306 q 574 374 640 306 m 882 -25 l 1160 -139 l 1190 -139 l 1190 151 q 1341 534 1341 314 q 1168 942 1341 775 q 735 1111 994 1111 q 303 942 479 1111 q 130 534 130 775 q 304 127 130 295 q 735 -41 480 -41 q 882 -25 812 -41 m 0 1282 l 1470 1282 l 1470 -189 l 0 -189 l 0 1282 z "},"R":{"ha":1470,"x_min":0,"x_max":1470,"o":"m 817 1093 l 219 1093 l 219 0 l 593 0 l 593 306 l 760 306 l 926 0 l 1364 0 l 1087 463 q 1187 566 1139 498 q 1245 729 1236 634 q 1218 897 1255 824 q 817 1093 1121 1093 m 593 572 l 593 832 l 723 832 q 811 791 774 832 q 847 701 847 752 q 811 610 847 647 q 723 572 775 572 l 593 572 m 0 1282 l 1470 1282 l 1470 -189 l 0 -189 l 0 1282 z "},"S":{"ha":1470,"x_min":0,"x_max":1470,"o":"m 897 771 l 1153 871 q 1084 1008 1130 956 q 867 1109 1011 1086 q 664 1112 761 1127 q 343 903 433 1079 q 342 555 251 724 q 664 379 427 394 q 818 329 795 373 q 817 261 837 294 q 709 215 786 215 q 550 328 611 217 l 283 228 q 351 106 313 148 q 576 -17 430 16 q 785 -29 688 -43 q 1147 203 1044 0 q 1187 378 1187 281 q 1148 547 1187 476 q 818 718 1063 701 l 722 727 q 648 777 663 739 q 656 842 634 809 q 777 878 694 890 q 897 771 861 868 m 0 1282 l 1470 1282 l 1470 -189 l 0 -189 l 0 1282 z "},"T":{"ha":1470,"x_min":0,"x_max":1470,"o":"m 549 810 l 549 0 l 922 0 l 922 810 l 1235 783 l 1235 1093 l 235 1093 l 235 783 l 549 810 m 0 1282 l 1470 1282 l 1470 -189 l 0 -189 l 0 1282 z "},"U":{"ha":1470,"x_min":0,"x_max":1470,"o":"m 394 37 q 734 -40 507 -40 q 1076 37 962 -40 q 1236 429 1236 146 l 1236 1093 l 863 1093 l 863 492 q 846 358 863 395 q 733 296 819 296 q 623 358 649 296 q 607 492 607 395 l 607 1093 l 233 1093 l 233 429 q 394 37 233 146 m 0 1282 l 1470 1282 l 1470 -189 l 0 -189 l 0 1282 z "},"V":{"ha":1470,"x_min":0,"x_max":1470,"o":"m 698 0 l 773 0 l 1350 1093 l 949 1093 l 734 633 l 521 1093 l 121 1093 l 698 0 m 0 1282 l 1470 1282 l 1470 -189 l 0 -189 l 0 1282 z "},"W":{"ha":1470,"x_min":0,"x_max":1470,"o":"m 940 0 l 1006 0 l 1413 1093 l 1030 1093 l 925 715 l 753 1092 l 715 1092 l 544 715 l 439 1093 l 57 1093 l 462 0 l 530 0 l 734 410 l 940 0 m 0 1282 l 1470 1282 l 1470 -189 l 0 -189 l 0 1282 z "},"X":{"ha":1470,"x_min":0,"x_max":1470,"o":"m 575 1093 l 125 1093 l 511 541 l 121 0 l 538 0 l 724 317 l 900 0 l 1350 0 l 953 568 l 1311 1093 l 911 1093 l 733 803 l 575 1093 m 0 1282 l 1470 1282 l 1470 -189 l 0 -189 l 0 1282 z "},"Y":{"ha":1470,"x_min":0,"x_max":1470,"o":"m 578 1093 l 146 1093 l 555 321 l 555 0 l 939 -1 l 939 321 l 1323 1093 l 923 1093 l 760 676 l 578 1093 m 0 1282 l 1470 1282 l 1470 -189 l 0 -189 l 0 1282 z "},"Z":{"ha":1470,"x_min":0,"x_max":1470,"o":"m 1233 1048 l 1229 1086 l 272 1086 l 272 798 l 702 815 l 237 32 l 237 0 l 1223 -1 l 1223 285 l 772 272 l 1233 1048 m 0 1282 l 1470 1282 l 1470 -189 l 0 -189 l 0 1282 z "},"[":{"ha":452,"x_min":0,"x_max":0,"o":""},"\\":{"ha":805,"x_min":0,"x_max":0,"o":""},"]":{"ha":453,"x_min":0,"x_max":0,"o":""},"^":{"ha":657,"x_min":0,"x_max":0,"o":""},"_":{"ha":1470,"x_min":0,"x_max":0,"o":""},"`":{"ha":514,"x_min":0,"x_max":0,"o":""},"a":{"ha":1470,"x_min":80,"x_max":1390,"o":"m 734 572 l 640 364 l 830 364 l 734 572 m 761 1093 l 1390 0 l 996 0 l 935 134 l 536 134 l 475 0 l 80 0 l 710 1093 l 761 1093 z "},"b":{"ha":1470,"x_min":252,"x_max":1265,"o":"m 625 676 l 732 676 q 844 765 844 676 q 732 854 844 854 l 625 854 l 625 676 m 836 1093 q 1187 962 1096 1093 q 1223 718 1265 853 q 1040 550 1183 598 q 1228 407 1173 505 q 1259 274 1259 351 q 1230 144 1259 198 q 857 0 1150 0 l 252 0 l 252 1093 l 836 1093 m 625 236 l 747 236 q 860 325 860 236 q 747 414 860 414 l 625 414 l 625 236 z "},"c":{"ha":1470,"x_min":158,"x_max":1312,"o":"m 966 628 q 761 764 920 764 q 602 696 667 764 q 538 534 538 629 q 602 374 538 441 q 761 306 667 306 q 966 440 913 306 l 1312 349 q 1122 68 1261 172 q 753 -41 972 -41 q 332 127 507 -41 q 158 534 158 296 q 332 942 158 773 q 753 1111 507 1111 q 1109 1010 963 1111 q 1304 750 1246 916 l 966 628 z "},"d":{"ha":1470,"x_min":232,"x_max":1293,"o":"m 617 273 q 792 292 746 273 q 884 392 850 314 q 906 570 911 454 q 860 747 900 693 q 745 814 823 800 q 617 819 715 819 l 617 273 m 765 1093 q 1234 825 1097 1093 q 1291 544 1293 707 q 1157 144 1293 289 q 749 0 1021 0 l 232 0 l 232 1093 l 765 1093 z "},"e":{"ha":1470,"x_min":313,"x_max":1156,"o":"m 1156 1093 l 1156 832 l 687 832 l 687 677 l 1145 677 l 1145 404 l 687 404 l 687 252 l 1156 252 l 1156 0 l 313 0 l 313 1093 l 1156 1093 z "},"f":{"ha":1470,"x_min":313,"x_max":1156,"o":"m 1156 1093 l 1156 819 l 687 819 l 687 607 l 1115 607 l 1115 334 l 687 334 l 687 0 l 313 0 l 313 1093 l 1156 1093 z "},"g":{"ha":1470,"x_min":153,"x_max":1303,"o":"m 977 644 q 779 778 909 770 q 583 677 656 786 q 545 562 549 633 q 567 439 542 492 q 738 317 616 328 q 864 338 803 310 q 982 464 944 376 l 1303 464 l 1303 -21 l 1278 -21 l 1072 100 q 778 -21 933 3 q 492 8 623 -45 q 178 395 227 122 q 186 675 153 534 q 343 956 226 845 q 627 1105 461 1067 q 926 1104 781 1141 q 1301 774 1219 1034 l 977 644 z "},"h":{"ha":1470,"x_min":221,"x_max":1249,"o":"m 595 1093 l 595 722 l 876 722 l 876 1093 l 1249 1093 l 1249 0 l 876 0 l 876 372 l 595 372 l 595 0 l 221 0 l 221 1093 l 595 1093 z "},"i":{"ha":1470,"x_min":548,"x_max":922,"o":"m 922 1093 l 922 0 l 548 0 l 548 1093 l 922 1093 z "},"j":{"ha":1470,"x_min":447,"x_max":1023,"o":"m 1023 329 q 1012 181 1023 226 q 920 45 991 98 q 447 7 760 -79 l 471 296 q 593 297 557 279 q 644 362 634 317 q 648 444 648 379 l 648 1093 l 1023 1093 l 1023 329 z "},"k":{"ha":1470,"x_min":203,"x_max":1320,"o":"m 577 1093 l 577 637 l 863 1093 l 1270 1093 l 945 591 l 1320 0 l 873 0 l 577 465 l 577 0 l 203 0 l 203 1093 l 577 1093 z "},"l":{"ha":1470,"x_min":314,"x_max":1156,"o":"m 688 1093 l 688 252 l 1156 252 l 1156 0 l 314 0 l 314 1093 l 688 1093 z "},"m":{"ha":1470,"x_min":132,"x_max":1339,"o":"m 210 1107 l 730 675 l 1278 1107 l 1305 1107 l 1339 0 l 977 0 l 957 401 l 729 218 l 480 411 l 465 0 l 132 0 l 179 1107 l 210 1107 z "},"n":{"ha":1470,"x_min":177,"x_max":1293,"o":"m 216 1107 l 919 665 l 919 1093 l 1293 1093 l 1293 -29 l 1266 -29 l 551 414 l 551 0 l 177 0 l 177 1107 l 216 1107 z "},"o":{"ha":1470,"x_min":130,"x_max":1341,"o":"m 735 -41 q 304 127 480 -41 q 130 534 130 295 q 303 942 130 775 q 735 1111 479 1111 q 1168 942 994 1111 q 1341 534 1341 775 q 1168 127 1341 294 q 735 -41 994 -41 m 510 534 q 574 374 510 440 q 738 306 640 306 q 895 374 830 306 q 960 534 960 441 q 897 696 960 629 q 736 764 832 764 q 574 696 640 764 q 510 534 510 629 z "},"p":{"ha":1470,"x_min":235,"x_max":1237,"o":"m 756 1093 q 1192 889 1080 1093 q 1234 690 1237 810 q 1180 484 1231 568 q 736 288 1061 288 l 609 288 l 609 0 l 235 0 l 235 1093 l 756 1093 m 609 566 l 739 566 q 827 605 791 566 q 863 699 863 644 q 827 790 863 749 q 739 832 790 832 l 609 832 l 609 566 z "},"q":{"ha":1470,"x_min":130,"x_max":1341,"o":"m 510 534 q 574 374 510 440 q 738 306 640 306 q 895 374 830 306 q 960 534 960 441 q 897 696 960 629 q 736 764 832 764 q 574 696 640 764 q 510 534 510 629 m 882 -25 q 735 -41 812 -41 q 304 127 480 -41 q 130 534 130 295 q 303 942 130 775 q 735 1111 479 1111 q 1168 942 994 1111 q 1341 534 1341 775 q 1190 151 1341 314 l 1190 -139 l 1160 -139 l 882 -25 z "},"r":{"ha":1470,"x_min":219,"x_max":1364,"o":"m 593 572 l 723 572 q 811 610 775 572 q 847 701 847 647 q 811 791 847 752 q 723 832 774 832 l 593 832 l 593 572 m 817 1093 q 1218 897 1121 1093 q 1245 729 1255 824 q 1187 566 1236 634 q 1087 463 1139 498 l 1364 0 l 926 0 l 760 306 l 593 306 l 593 0 l 219 0 l 219 1093 l 817 1093 z "},"s":{"ha":1470,"x_min":251,"x_max":1187,"o":"m 897 771 q 777 878 861 868 q 656 842 694 890 q 648 777 634 809 q 722 727 663 739 l 818 718 q 1148 547 1063 701 q 1187 378 1187 476 q 1147 203 1187 281 q 785 -29 1044 0 q 576 -17 688 -43 q 351 106 430 16 q 283 228 313 148 l 550 328 q 709 215 611 217 q 817 261 786 215 q 818 329 837 294 q 664 379 795 373 q 342 555 427 394 q 343 903 251 724 q 664 1112 433 1079 q 867 1109 761 1127 q 1084 1008 1011 1086 q 1153 871 1130 956 l 897 771 z "},"t":{"ha":1470,"x_min":235,"x_max":1235,"o":"m 549 810 l 235 783 l 235 1093 l 1235 1093 l 1235 783 l 922 810 l 922 0 l 549 0 l 549 810 z "},"u":{"ha":1470,"x_min":233,"x_max":1236,"o":"m 734 -40 q 394 37 507 -40 q 233 429 233 146 l 233 1093 l 607 1093 l 607 492 q 623 358 607 395 q 733 296 649 296 q 846 358 819 296 q 863 492 863 395 l 863 1093 l 1236 1093 l 1236 429 q 1076 37 1236 146 q 734 -40 962 -40 z "},"v":{"ha":1470,"x_min":121,"x_max":1350,"o":"m 698 0 l 121 1093 l 521 1093 l 734 633 l 949 1093 l 1350 1093 l 773 0 l 698 0 z "},"w":{"ha":1470,"x_min":57,"x_max":1413,"o":"m 940 0 l 734 410 l 530 0 l 462 0 l 57 1093 l 439 1093 l 544 715 l 715 1092 l 753 1092 l 925 715 l 1030 1093 l 1413 1093 l 1006 0 l 940 0 z "},"x":{"ha":1470,"x_min":121,"x_max":1350,"o":"m 575 1093 l 733 803 l 911 1093 l 1311 1093 l 953 568 l 1350 0 l 900 0 l 724 317 l 538 0 l 121 0 l 511 541 l 125 1093 l 575 1093 z "},"y":{"ha":1470,"x_min":146,"x_max":1323,"o":"m 578 1093 l 760 676 l 923 1093 l 1323 1093 l 939 321 l 939 -1 l 555 0 l 555 321 l 146 1093 l 578 1093 z "},"z":{"ha":1470,"x_min":237,"x_max":1233,"o":"m 1233 1048 l 772 272 l 1223 285 l 1223 -1 l 237 0 l 237 32 l 702 815 l 272 798 l 272 1086 l 1229 1086 l 1233 1048 z "},"{":{"ha":766,"x_min":0,"x_max":0,"o":""},"|":{"ha":220,"x_min":0,"x_max":0,"o":""},"}":{"ha":766,"x_min":0,"x_max":0,"o":""},"~":{"ha":661,"x_min":0,"x_max":0,"o":""},"¡":{"ha":111,"x_min":0,"x_max":0,"o":""},"¢":{"ha":111,"x_min":0,"x_max":0,"o":""},"£":{"ha":111,"x_min":0,"x_max":0,"o":""},"¤":{"ha":111,"x_min":0,"x_max":0,"o":""},"¥":{"ha":111,"x_min":0,"x_max":0,"o":""},"¦":{"ha":111,"x_min":0,"x_max":0,"o":""},"§":{"ha":111,"x_min":0,"x_max":0,"o":""},"¨":{"ha":111,"x_min":0,"x_max":0,"o":""},"©":{"ha":111,"x_min":0,"x_max":0,"o":""},"ª":{"ha":111,"x_min":0,"x_max":0,"o":""},"«":{"ha":111,"x_min":0,"x_max":0,"o":""},"¬":{"ha":111,"x_min":0,"x_max":0,"o":""},"®":{"ha":111,"x_min":0,"x_max":0,"o":""},"¯":{"ha":111,"x_min":0,"x_max":0,"o":""},"°":{"ha":111,"x_min":0,"x_max":0,"o":""},"±":{"ha":111,"x_min":0,"x_max":0,"o":""},"²":{"ha":111,"x_min":0,"x_max":0,"o":""},"³":{"ha":111,"x_min":0,"x_max":0,"o":""},"´":{"ha":111,"x_min":0,"x_max":0,"o":""},"µ":{"ha":111,"x_min":0,"x_max":0,"o":""},"¶":{"ha":111,"x_min":0,"x_max":0,"o":""},"·":{"ha":111,"x_min":0,"x_max":0,"o":""},"∙":{"ha":111,"x_min":0,"x_max":0,"o":""},"¸":{"ha":111,"x_min":0,"x_max":0,"o":""},"¹":{"ha":111,"x_min":0,"x_max":0,"o":""},"º":{"ha":111,"x_min":0,"x_max":0,"o":""},"»":{"ha":111,"x_min":0,"x_max":0,"o":""},"¼":{"ha":111,"x_min":0,"x_max":0,"o":""},"½":{"ha":111,"x_min":0,"x_max":0,"o":""},"¾":{"ha":111,"x_min":0,"x_max":0,"o":""},"¿":{"ha":111,"x_min":0,"x_max":0,"o":""},"À":{"ha":117,"x_min":0,"x_max":0,"o":""},"Á":{"ha":117,"x_min":0,"x_max":0,"o":""},"Â":{"ha":117,"x_min":0,"x_max":0,"o":""},"Ã":{"ha":117,"x_min":0,"x_max":0,"o":""},"Ä":{"ha":117,"x_min":0,"x_max":0,"o":""},"Å":{"ha":117,"x_min":0,"x_max":0,"o":""},"Æ":{"ha":117,"x_min":0,"x_max":0,"o":""},"Ç":{"ha":117,"x_min":0,"x_max":0,"o":""},"È":{"ha":117,"x_min":0,"x_max":0,"o":""},"É":{"ha":117,"x_min":0,"x_max":0,"o":""},"Ê":{"ha":117,"x_min":0,"x_max":0,"o":""},"Ë":{"ha":117,"x_min":0,"x_max":0,"o":""},"Ì":{"ha":117,"x_min":0,"x_max":0,"o":""},"Í":{"ha":117,"x_min":0,"x_max":0,"o":""},"Î":{"ha":117,"x_min":0,"x_max":0,"o":""},"Ï":{"ha":117,"x_min":0,"x_max":0,"o":""},"Ð":{"ha":117,"x_min":0,"x_max":0,"o":""},"Ñ":{"ha":117,"x_min":0,"x_max":0,"o":""},"Ò":{"ha":117,"x_min":0,"x_max":0,"o":""},"Ó":{"ha":117,"x_min":0,"x_max":0,"o":""},"Ô":{"ha":117,"x_min":0,"x_max":0,"o":""},"Õ":{"ha":117,"x_min":0,"x_max":0,"o":""},"Ö":{"ha":117,"x_min":0,"x_max":0,"o":""},"×":{"ha":117,"x_min":0,"x_max":0,"o":""},"Ø":{"ha":117,"x_min":0,"x_max":0,"o":""},"Ù":{"ha":117,"x_min":0,"x_max":0,"o":""},"Ú":{"ha":117,"x_min":0,"x_max":0,"o":""},"Û":{"ha":117,"x_min":0,"x_max":0,"o":""},"Ü":{"ha":117,"x_min":0,"x_max":0,"o":""},"Ý":{"ha":117,"x_min":0,"x_max":0,"o":""},"Þ":{"ha":117,"x_min":0,"x_max":0,"o":""},"ß":{"ha":117,"x_min":0,"x_max":0,"o":""},"à":{"ha":117,"x_min":0,"x_max":0,"o":""},"á":{"ha":117,"x_min":0,"x_max":0,"o":""},"â":{"ha":117,"x_min":0,"x_max":0,"o":""},"ã":{"ha":117,"x_min":0,"x_max":0,"o":""},"ä":{"ha":117,"x_min":0,"x_max":0,"o":""},"å":{"ha":117,"x_min":0,"x_max":0,"o":""},"æ":{"ha":117,"x_min":0,"x_max":0,"o":""},"ç":{"ha":117,"x_min":0,"x_max":0,"o":""},"è":{"ha":117,"x_min":0,"x_max":0,"o":""},"é":{"ha":117,"x_min":0,"x_max":0,"o":""},"ê":{"ha":117,"x_min":0,"x_max":0,"o":""},"ë":{"ha":117,"x_min":0,"x_max":0,"o":""},"ì":{"ha":117,"x_min":0,"x_max":0,"o":""},"í":{"ha":117,"x_min":0,"x_max":0,"o":""},"î":{"ha":117,"x_min":0,"x_max":0,"o":""},"ï":{"ha":117,"x_min":0,"x_max":0,"o":""},"ð":{"ha":117,"x_min":0,"x_max":0,"o":""},"ñ":{"ha":117,"x_min":0,"x_max":0,"o":""},"ò":{"ha":117,"x_min":0,"x_max":0,"o":""},"ó":{"ha":117,"x_min":0,"x_max":0,"o":""},"ô":{"ha":117,"x_min":0,"x_max":0,"o":""},"õ":{"ha":117,"x_min":0,"x_max":0,"o":""},"ö":{"ha":117,"x_min":0,"x_max":0,"o":""},"÷":{"ha":117,"x_min":0,"x_max":0,"o":""},"ø":{"ha":117,"x_min":0,"x_max":0,"o":""},"ù":{"ha":117,"x_min":0,"x_max":0,"o":""},"ú":{"ha":117,"x_min":0,"x_max":0,"o":""},"û":{"ha":117,"x_min":0,"x_max":0,"o":""},"ü":{"ha":117,"x_min":0,"x_max":0,"o":""},"ý":{"ha":117,"x_min":0,"x_max":0,"o":""},"þ":{"ha":117,"x_min":0,"x_max":0,"o":""},"ÿ":{"ha":117,"x_min":0,"x_max":0,"o":""},"ı":{"ha":117,"x_min":0,"x_max":0,"o":""},"ˆ":{"ha":111,"x_min":0,"x_max":0,"o":""},"ˇ":{"ha":111,"x_min":0,"x_max":0,"o":""},"ˉ":{"ha":111,"x_min":0,"x_max":0,"o":""},"˘":{"ha":111,"x_min":0,"x_max":0,"o":""},"˙":{"ha":111,"x_min":0,"x_max":0,"o":""},"˚":{"ha":111,"x_min":0,"x_max":0,"o":""},"˛":{"ha":111,"x_min":0,"x_max":0,"o":""},"˜":{"ha":111,"x_min":0,"x_max":0,"o":""},"˝":{"ha":111,"x_min":0,"x_max":0,"o":""},"–":{"ha":111,"x_min":0,"x_max":0,"o":""},"—":{"ha":111,"x_min":0,"x_max":0,"o":""},"‘":{"ha":111,"x_min":0,"x_max":0,"o":""},"’":{"ha":111,"x_min":0,"x_max":0,"o":""},"‚":{"ha":111,"x_min":0,"x_max":0,"o":""},"“":{"ha":111,"x_min":0,"x_max":0,"o":""},"”":{"ha":111,"x_min":0,"x_max":0,"o":""},"„":{"ha":111,"x_min":0,"x_max":0,"o":""},"†":{"ha":111,"x_min":0,"x_max":0,"o":""},"‡":{"ha":111,"x_min":0,"x_max":0,"o":""},"•":{"ha":111,"x_min":0,"x_max":0,"o":""},"…":{"ha":111,"x_min":0,"x_max":0,"o":""},"‹":{"ha":111,"x_min":0,"x_max":0,"o":""},"›":{"ha":111,"x_min":0,"x_max":0,"o":""},"⁄":{"ha":111,"x_min":0,"x_max":0,"o":""},"∕":{"ha":111,"x_min":0,"x_max":0,"o":""},"₣":{"ha":111,"x_min":0,"x_max":0,"o":""},"₤":{"ha":111,"x_min":0,"x_max":0,"o":""},"₧":{"ha":111,"x_min":0,"x_max":0,"o":""},"€":{"ha":111,"x_min":0,"x_max":0,"o":""},"№":{"ha":111,"x_min":0,"x_max":0,"o":""},"™":{"ha":111,"x_min":0,"x_max":0,"o":""},"∂":{"ha":111,"x_min":0,"x_max":0,"o":""},"∆":{"ha":111,"x_min":0,"x_max":0,"o":""},"∏":{"ha":111,"x_min":0,"x_max":0,"o":""},"∑":{"ha":111,"x_min":0,"x_max":0,"o":""},"−":{"ha":111,"x_min":0,"x_max":0,"o":""},"√":{"ha":111,"x_min":0,"x_max":0,"o":""},"∞":{"ha":111,"x_min":0,"x_max":0,"o":""},"∫":{"ha":111,"x_min":0,"x_max":0,"o":""},"≈":{"ha":111,"x_min":0,"x_max":0,"o":""},"≤":{"ha":111,"x_min":0,"x_max":0,"o":""},"≥":{"ha":111,"x_min":0,"x_max":0,"o":""},"":{"ha":111,"x_min":0,"x_max":0,"o":""},"ﬁ":{"ha":111,"x_min":0,"x_max":0,"o":""},"":{"ha":111,"x_min":0,"x_max":0,"o":""},"ﬂ":{"ha":111,"x_min":0,"x_max":0,"o":""}}}
